<svg viewBox="0 0 20 20" class="hds-icons hds-icons-account-solid">
  <path d="M10,11.62h0a3.72,3.72,0,0,0,2.73-1.21,7,7,0,0,0,1.74-4.48C14.44,2.71,12.82.87,10,.87c-3.32,0-4.5,2.61-4.5,5.06a6.76,6.76,0,0,0,1.74,4.48A3.72,3.72,0,0,0,10,11.62Z"/>
  <path d="M18.86,13.83a.92.92,0,0,0-.33-.32,32.53,32.53,0,0,0-3.76-1.87.89.89,0,0,0-1,.33c0,.06-1.06,1.43-3.78,1.43S6.26,12,6.22,12a.87.87,0,0,0-1-.34,32.53,32.53,0,0,0-3.76,1.87.92.92,0,0,0-.33.32,10.53,10.53,0,0,0-1,4,.86.86,0,0,0,.87.87H19a.88.88,0,0,0,.88-.87A10.56,10.56,0,0,0,18.86,13.83Z"/>
</svg>