<svg viewBox="0 0 20 20" class="hds-icons hds-icons-account-stroke">
  <path d="M10,11.75h0a3.83,3.83,0,0,0,2.82-1.26,7.1,7.1,0,0,0,1.77-4.56C14.56,2.63,12.9.75,10,.75,6.58.75,5.36,3.42,5.36,5.93a6.88,6.88,0,0,0,1.78,4.56A3.83,3.83,0,0,0,10,11.75Zm0-9c.7,0,2.57,0,2.57,3.18a5.16,5.16,0,0,1-1.23,3.2A1.86,1.86,0,0,1,10,9.75h0A1.86,1.86,0,0,1,8.6,9.13a4.92,4.92,0,0,1-1.24-3.2C7.36,4.48,7.82,2.75,10,2.75Z"/>
  <path d="M19,13.77a1,1,0,0,0-.38-.37,32.06,32.06,0,0,0-3.78-1.88,1,1,0,0,0-1.13.37c0,.06-1,1.38-3.68,1.38S6.36,12,6.33,11.91a1,1,0,0,0-1.14-.39A32.06,32.06,0,0,0,1.41,13.4a.94.94,0,0,0-.37.37,10.6,10.6,0,0,0-1,4.11,1,1,0,0,0,1,1H1a1,1,0,0,0,1-1A9.72,9.72,0,0,1,2.65,15c.66-.36,1.8-1,2.59-1.34A7,7,0,0,0,10,15.27a7,7,0,0,0,4.76-1.62c.79.36,1.94,1,2.59,1.34A9.72,9.72,0,0,1,18,17.86a1,1,0,0,0,1,1h0a1,1,0,0,0,1-1A10.4,10.4,0,0,0,19,13.77Z"/>
</svg>