<svg class="hds-icons hds-icons-alert-stroke" viewBox="0 0 20 20">
  <path d="M10,19.88a2.39,2.39,0,0,1-2.35-2H2A1.82,1.82,0,0,1,.13,16.05v-.11a1.81,1.81,0,0,1,1.69-1.81,6.39,6.39,0,0,0,1.31-3.69V8.1a5.84,5.84,0,0,1,4.5-5.85V2A1.88,1.88,0,0,1,9.53.13h.94A1.89,1.89,0,0,1,12.38,2v.3a5.85,5.85,0,0,1,4.5,5.85v2.34a6.37,6.37,0,0,0,1.3,3.69,1.82,1.82,0,0,1,1.7,1.81v.11a1.83,1.83,0,0,1-1.83,1.83h-5.7A2.39,2.39,0,0,1,10,19.88Zm-8-4-.07.06v.11l.07.08H8.5a.88.88,0,0,1,.88.87v.5a.63.63,0,0,0,.62.63.63.63,0,0,0,.63-.63V17a.87.87,0,0,1,.87-.87h6.55a.09.09,0,0,0,.08-.08v-.11l-.4-.06a.9.9,0,0,1-.71-.36,8.64,8.64,0,0,1-1.89-5.08V8.1a4.06,4.06,0,0,0-3.71-4.23A.87.87,0,0,1,10.63,3V2a.24.24,0,0,0-.16-.07H9.53A.2.2,0,0,0,9.37,2V3a.88.88,0,0,1-.8.87A4.05,4.05,0,0,0,4.88,8.1v2.34A8.64,8.64,0,0,1,3,15.52a.9.9,0,0,1-.71.36Z"/>
</svg>